# This file uses centimeters as units for non-parametric coordinates.

mtllib modular_environment_1.mtl
g default
v -1.163370 -0.500000 3.686961
v -1.163370 0.500000 3.686961
v -2.163370 0.500000 2.686961
v -1.163370 0.500000 2.686961
v -2.163370 -0.500000 2.686961
v -1.851087 -0.500000 3.277510
v -2.076404 -0.500000 2.971420
v -1.937035 0.500000 3.254120
v -1.543574 0.500000 3.463297
v -1.600892 -0.500000 3.249439
v -1.520131 -0.500000 3.525065
vt 0.740840 0.837003
vt 0.982670 0.810034
vt 0.837681 0.701658
vt 0.983895 0.985043
vt 0.741888 0.986737
vt 0.891429 0.985690
vt 0.953914 0.985253
vt 0.878416 0.842620
vt 0.811201 0.840356
vt 0.849973 0.985980
vt 0.803522 0.986305
vn 0.000000 1.000000 0.000000
vn 0.000000 1.000000 0.000000
vn 0.000000 1.000000 0.000000
vn 0.000000 1.000000 0.000000
vn -0.928492 0.024654 0.370532
vn -0.928492 0.024654 0.370532
vn -0.928492 0.024654 0.370532
vn -0.956306 0.000000 0.292368
vn -0.956306 0.000000 0.292368
vn -0.956306 0.000000 0.292368
vn -0.734520 0.024668 0.678138
vn -0.734520 0.024668 0.678139
vn -0.734520 0.024668 0.678138
vn -0.734520 0.024668 0.678138
vn -0.804106 -0.055266 0.591912
vn -0.804106 -0.055266 0.591912
vn -0.804106 -0.055266 0.591912
vn -0.269625 -0.095118 0.958256
vn -0.269625 -0.095118 0.958256
vn -0.269624 -0.095118 0.958256
vn -0.269624 -0.095118 0.958256
vn -0.413237 0.000000 0.910624
vn -0.413237 0.000000 0.910624
vn -0.413237 0.000000 0.910624
vn 0.000000 1.000000 0.000000
s 1
g corner_1x1_a corners
usemtl initialShadingGroup
f 3/2/1 8/8/2 9/9/3 4/3/4
s off
f 7/7/5 8/8/6 3/2/7
f 7/7/8 3/2/9 5/4/10
f 2/1/11 9/9/12 10/10/13 11/11/14
f 6/6/15 8/8/16 7/7/17
f 10/10/18 9/9/19 8/8/20 6/6/21
f 2/1/22 11/11/23 1/5/24
s 1
f 4/3/4 9/9/3 2/1/25
g default
v 0.630795 -0.500000 5.414715
v 0.630795 0.500000 5.414715
v -0.369205 0.500000 4.414715
v 0.630795 0.500000 4.414715
v -0.369205 -0.500000 4.414715
v -0.235784 -0.500000 4.795798
v -0.579301 0.500000 4.667260
v -0.092833 0.500000 4.853263
v 0.067547 -0.500000 5.304096
v 0.099698 0.500000 5.347920
v 0.545147 0.500000 5.499990
v 0.296107 -0.500000 5.433448
vt 0.470968 0.820283
vt 0.712954 0.827994
vt 0.595459 0.710803
vt 0.712149 0.983335
vt 0.470130 0.982081
vt 0.645147 0.982988
vt 0.682033 0.853740
vt 0.625405 0.833955
vt 0.551012 0.982500
vt 0.554290 0.853114
vt 0.495748 0.835611
vt 0.507996 0.982277
vn 0.000000 1.000000 0.000000
vn 0.000000 1.000000 0.000000
vn -0.000000 1.000000 0.000000
vn 0.000000 1.000000 0.000000
vn -0.908458 -0.271187 0.318060
vn -0.908458 -0.271187 0.318060
vn -0.908458 -0.271187 0.318060
vn -0.895021 0.055949 0.442500
vn -0.895021 0.055949 0.442500
vn -0.895021 0.055949 0.442500
vn -0.895021 0.055949 0.442500
vn -0.357139 -0.002622 0.934048
vn -0.357139 -0.002622 0.934048
vn -0.357139 -0.002622 0.934048
vn -0.322922 -0.031071 0.945915
vn -0.322922 -0.031071 0.945915
vn -0.322922 -0.031071 0.945915
vn -0.491508 0.064616 0.868473
vn -0.491508 0.064616 0.868473
vn -0.491508 0.064616 0.868473
vn 0.055705 -0.080097 0.995229
vn 0.055705 -0.080097 0.995229
vn 0.055705 -0.080097 0.995229
vn 0.705561 0.000000 0.708649
vn 0.705561 0.000000 0.708649
vn 0.705561 0.000000 0.708649
vn -0.768757 0.000000 -0.639541
vn -0.768757 0.000000 -0.639541
vn -0.768757 0.000000 -0.639541
vn -0.000000 1.000000 0.000000
vn -0.000000 1.000000 0.000000
vn -0.000000 1.000000 0.000000
s 1
g corners corner_1x1_b
usemtl initialShadingGroup
f 14/13/26 18/18/27 19/19/28 15/14/29
s off
f 17/17/30 18/18/31 16/15/32
f 20/20/33 21/21/34 19/19/35 17/17/36
f 17/17/37 19/19/38 18/18/39
f 20/20/40 22/22/41 21/21/42
f 23/23/43 22/22/44 20/20/45
f 12/16/46 22/22/47 23/23/48
f 13/12/49 22/22/50 12/16/51
f 16/15/52 18/18/53 14/13/54
s 1
f 13/12/55 19/19/28 21/21/56 22/22/57
f 15/14/29 19/19/28 13/12/55
g default
v 0.630795 -0.500000 3.579135
v 0.630795 0.500000 3.579135
v -0.369205 0.500000 2.579135
v 0.630795 0.500000 2.579135
v -0.369205 -0.500000 2.579135
v -0.321301 0.500000 2.711599
v -0.207514 0.500000 2.900998
v 0.147256 0.500000 3.257847
v 0.269596 -0.500000 3.296747
v -0.015767 -0.500000 3.091456
v -0.273334 -0.500000 2.759566
v 0.253031 0.500000 3.511688
v -0.201652 0.021844 3.030325
v -0.172516 -0.500000 2.996159
vt 0.835473 0.687457
vt 0.588612 0.688564
vt 0.728774 0.821941
vt 0.584449 0.513267
vt 0.837815 0.507249
vt 0.615777 0.683184
vt 0.652665 0.678606
vt 0.737339 0.679957
vt 0.759171 0.509117
vt 0.697278 0.510587
vt 0.616152 0.512514
vt 0.779750 0.671944
vt 0.668303 0.598397
vt 0.663237 0.511396
vn 0.000000 1.000000 0.000000
vn 0.000000 1.000000 0.000000
vn 0.000000 1.000000 0.000000
vn 0.000000 1.000000 0.000000
vn 0.000000 1.000000 0.000000
vn -0.857082 -0.016412 0.514919
vn -0.857082 -0.016412 0.514919
vn -0.857082 -0.016412 0.514919
vn -0.908600 -0.011778 0.417502
vn -0.908600 -0.011778 0.417502
vn -0.908600 -0.011778 0.417502
vn -0.908600 -0.011778 0.417502
vn -0.697709 0.179057 0.693643
vn -0.697709 0.179057 0.693643
vn -0.697709 0.179057 0.693643
vn -0.517621 -0.084643 0.851413
vn -0.517621 -0.084643 0.851413
vn -0.517621 -0.084643 0.851413
vn -0.425734 -0.100173 0.899286
vn -0.425734 -0.100173 0.899286
vn -0.425734 -0.100173 0.899286
vn -0.425734 -0.100173 0.899286
vn -0.583522 -0.039836 0.811120
vn -0.583522 -0.039836 0.811120
vn -0.583522 -0.039836 0.811120
vn -0.918669 -0.097499 0.382807
vn -0.918669 -0.097499 0.382807
vn -0.918669 -0.097499 0.382807
vn -0.962755 -0.007976 0.270257
vn -0.962755 -0.007976 0.270257
vn -0.962755 -0.007976 0.270257
vn -0.962755 -0.007976 0.270257
vn -0.478166 -0.067749 0.875653
vn -0.478165 -0.067749 0.875653
vn -0.478166 -0.067749 0.875653
vn 0.000000 1.000000 0.000000
vn 0.000000 1.000000 0.000000
s 1
g corners corner_1x1_c
usemtl initialShadingGroup
f 26/25/58 29/29/59 30/30/60 31/31/61 27/26/62
s off
f 34/34/63 30/30/64 29/29/65
f 34/34/66 29/29/67 26/25/68 28/27/69
f 36/36/70 31/31/71 30/30/72
f 33/33/73 36/36/74 37/37/75
f 25/24/76 35/35/77 32/32/78 24/28/79
f 32/32/80 31/31/81 33/33/82
f 32/32/83 35/35/84 31/31/85
f 37/37/86 36/36/87 30/30/88 34/34/89
f 33/33/90 31/31/91 36/36/92
s 1
f 27/26/62 31/31/61 35/35/93 25/24/94
g default
v -2.887349 -0.500000 1.500000
v -2.887349 0.500000 1.500000
v -1.887349 0.500000 1.500000
v -2.887349 0.500000 -1.500000
v -1.887349 0.500000 -1.500000
v -2.887349 -0.500000 -1.500000
v -3.176377 0.500000 -0.916506
v -2.887349 0.500000 -1.412892
v -2.917322 -0.500000 -1.054908
v -3.048960 -0.500000 0.084047
v -3.048960 0.500000 -0.206317
v -3.172326 0.500000 0.083274
v -2.917547 0.040478 -0.072888
v -2.887349 0.500000 0.369012
v -3.031690 -0.500000 0.562601
v -3.059435 0.500000 0.849446
v -2.887349 -0.500000 1.069131
v -3.066690 0.500000 1.349118
v -3.027597 -0.500000 1.245846
vt 0.983692 0.391340
vt 0.846916 0.391340
vt 0.721733 0.391340
vt 0.847769 0.013948
vt 0.721733 0.013948
vt 0.983692 0.013948
vt 0.866247 0.090208
vt 0.847689 0.028736
vt 0.983692 0.069659
vt 0.983692 0.214642
vt 0.855581 0.174830
vt 0.867138 0.208200
vt 0.916022 0.184373
vt 0.844416 0.251886
vt 0.983692 0.271761
vt 0.864431 0.309816
vt 0.983692 0.335574
vt 0.863636 0.366366
vt 0.983692 0.360983
vn 0.000000 1.000000 0.000000
vn 0.000000 1.000000 0.000000
vn 0.000000 1.000000 0.000000
vn 0.000000 1.000000 0.000000
vn -0.854082 -0.152426 -0.497303
vn -0.854082 -0.152426 -0.497303
vn -0.854082 -0.152426 -0.497303
vn -0.998406 0.004898 -0.056231
vn -0.998406 0.004898 -0.056231
vn -0.998406 0.004898 -0.056231
vn -0.998406 0.004898 -0.056231
vn -0.991789 -0.108170 0.068220
vn -0.991789 -0.108170 0.068220
vn -0.991789 -0.108170 0.068220
vn -0.991789 -0.108170 0.068220
vn -0.991789 -0.108170 0.068220
vn -0.705397 -0.086478 0.703518
vn -0.705397 -0.086478 0.703518
vn -0.705397 -0.086478 0.703518
vn -0.860884 -0.352680 -0.366737
vn -0.860884 -0.352680 -0.366737
vn -0.860884 -0.352680 -0.366737
vn -0.618131 -0.076860 -0.782309
vn -0.618131 -0.076860 -0.782309
vn -0.618131 -0.076860 -0.782309
vn -0.939091 0.070432 -0.336373
vn -0.939091 0.070432 -0.336373
vn -0.939091 0.070432 -0.336373
vn -0.988114 0.149529 0.035658
vn -0.988114 0.149529 0.035658
vn -0.988114 0.149529 0.035658
vn -0.984884 -0.172627 -0.014300
vn -0.984883 -0.172627 -0.014300
vn -0.984883 -0.172627 -0.014300
vn -0.956428 -0.104714 0.272545
vn -0.956428 -0.104714 0.272545
vn -0.956428 -0.104714 0.272545
vn -0.784171 -0.047277 0.618741
vn -0.784171 -0.047277 0.618741
vn -0.784171 -0.047277 0.618741
vn -0.784171 -0.047277 0.618741
vn -0.782852 0.033559 -0.621303
vn -0.782851 0.033559 -0.621303
vn -0.782852 0.033559 -0.621303
vn 0.000000 1.000000 0.000000
vn 0.000000 1.000000 0.000000
vn 0.000000 1.000000 0.000000
vn 0.000000 1.000000 0.000000
vn 0.000000 1.000000 0.000000
vn 0.000000 1.000000 0.000000
vn 0.000000 1.000000 -0.000000
s 1
g transition_3x1_a transitions
usemtl initialShadingGroup
f 44/44/95 42/42/96 41/41/97 45/45/98
s off
f 45/45/99 46/46/100 44/44/101
f 43/43/102 46/46/103 45/45/104 41/41/105
f 44/44/106 46/46/107 47/47/108 50/50/109 48/48/110
f 49/49/111 47/47/112 51/51/113
f 48/48/114 50/50/115 49/49/116
f 49/49/117 50/50/118 47/47/119
f 51/51/120 52/52/121 53/53/122
f 51/51/123 47/47/124 52/52/125
f 53/53/126 54/54/127 55/55/128
f 53/53/129 52/52/130 54/54/131
f 55/55/132 56/56/133 38/38/134 39/39/135
f 55/55/136 54/54/137 56/56/138
s 1
f 48/48/139 40/40/140 42/42/96 44/44/95
f 51/51/141 40/40/140 48/48/139 49/49/142
f 55/55/143 40/40/140 51/51/141 53/53/144
f 39/39/145 40/40/140 55/55/143
g default
v -4.370199 -0.500000 1.500000
v -4.370199 0.500000 1.500000
v -3.370199 0.500000 1.500000
v -4.370199 0.500000 -1.500000
v -3.370199 0.500000 -1.500000
v -4.370199 -0.500000 -1.500000
v -4.250383 -0.500000 -1.188984
v -4.454888 -0.500000 -0.763278
v -4.143037 -0.500000 -0.105195
v -4.663893 0.500000 -0.278055
v -4.271890 0.500000 -0.866670
v -4.370199 -0.500000 0.352436
v -4.573715 0.500000 0.602841
v -4.296613 -0.500000 0.785495
v -4.370199 0.500000 0.767915
v -4.553510 0.500000 1.163964
vt 0.168311 0.017340
vt 0.301420 0.017340
vt 0.424539 0.017340
vt 0.304945 0.392722
vt 0.424539 0.392722
vt 0.168311 0.392722
vt 0.168311 0.354344
vt 0.168311 0.299398
vt 0.168311 0.218514
vt 0.277499 0.234162
vt 0.312416 0.313092
vt 0.168311 0.158115
vt 0.280410 0.133588
vt 0.168311 0.105401
vt 0.303526 0.111803
vt 0.290928 0.062251
vn 0.000000 1.000000 0.000000
vn 0.000000 1.000000 0.000000
vn 0.000000 1.000000 0.000000
vn 0.000000 1.000000 0.000000
vn -0.985706 -0.070516 0.153006
vn -0.985706 -0.070516 0.153006
vn -0.985706 -0.070516 0.153006
vn -0.933150 0.000000 0.359486
vn -0.933150 0.000000 0.359486
vn -0.933150 0.000000 0.359486
vn -0.828585 0.094576 -0.551817
vn -0.828585 0.094576 -0.551817
vn -0.828585 0.094576 -0.551817
vn -0.894946 0.119323 -0.429924
vn -0.894946 0.119323 -0.429924
vn -0.894946 0.119323 -0.429924
vn -0.937082 -0.335680 -0.095900
vn -0.937082 -0.335680 -0.095900
vn -0.937082 -0.335680 -0.095900
vn -0.937082 -0.335680 -0.095900
vn -0.840001 -0.368711 0.398058
vn -0.840001 -0.368711 0.398058
vn -0.840001 -0.368711 0.398058
vn -0.893828 -0.172046 0.414092
vn -0.893828 -0.172046 0.414092
vn -0.893828 -0.172046 0.414092
vn -0.893828 -0.172046 0.414092
vn -0.983956 -0.145836 0.102772
vn -0.983956 -0.145836 0.102772
vn -0.983956 -0.145836 0.102772
vn -0.983956 -0.145836 0.102772
vn -0.905020 -0.073960 -0.418889
vn -0.905020 -0.073960 -0.418889
vn -0.905020 -0.073960 -0.418889
vn 0.000000 1.000000 0.000000
vn 0.000000 1.000000 0.000000
vn 0.000000 1.000000 0.000000
vn 0.000000 1.000000 0.000000
vn 0.000000 1.000000 0.000000
s 1
g transitions transition_3x1_b
usemtl initialShadingGroup
f 67/67/146 59/59/147 61/61/148 60/60/149
s off
f 60/60/150 63/63/151 67/67/152
f 62/62/153 63/63/154 60/60/155
f 67/67/156 64/64/157 66/66/158
f 67/67/159 63/63/160 64/64/161
f 66/66/162 65/65/163 68/68/164 69/69/165
f 66/66/166 64/64/167 65/65/168
f 69/69/169 68/68/170 70/70/171 71/71/172
f 72/72/173 70/70/174 57/57/175 58/58/176
f 71/71/177 70/70/178 72/72/179
s 1
f 58/58/180 59/59/147 71/71/181 72/72/182
f 71/71/181 59/59/147 67/67/146 66/66/183 69/69/184
g default
v -6.077272 -0.500000 1.500000
v -6.077272 0.500000 1.500000
v -5.077272 0.500000 1.500000
v -6.077272 0.500000 -1.500000
v -5.077272 0.500000 -1.500000
v -6.077272 -0.500000 -1.500000
v -6.203687 -0.500000 -1.346959
v -6.077272 -0.500000 -1.057679
v -6.422747 -0.500000 -0.600000
v -6.321245 0.500000 -0.787329
v -6.077272 0.500000 -1.040052
v -6.309010 0.500000 -0.130884
v -6.558854 -0.500000 -0.448063
v -6.309010 -0.500000 -0.286534
v -6.309010 -0.500000 1.244953
v -6.309010 0.500000 0.879052
v -6.081439 0.500000 1.361765
v -6.167706 -0.500000 1.376034
vt 0.451574 0.013053
vt 0.576273 0.013053
vt 0.695039 0.013053
vt 0.596842 0.393308
vt 0.695039 0.393308
vt 0.451574 0.393308
vt 0.451574 0.375481
vt 0.451574 0.337331
vt 0.451574 0.285552
vt 0.572628 0.281509
vt 0.597609 0.314286
vt 0.566434 0.208511
vt 0.451574 0.262582
vt 0.451574 0.228717
vt 0.451574 0.051722
vt 0.560355 0.094263
vt 0.576612 0.036748
vt 0.451574 0.031606
vn -0.975192 0.092500 -0.201110
vn -0.975191 0.092500 -0.201110
vn -0.975191 0.092500 -0.201110
vn -0.975192 0.092500 -0.201110
vn -0.719398 0.012242 -0.694490
vn -0.719398 0.012242 -0.694490
vn -0.719398 0.012242 -0.694490
vn -0.916303 -0.007058 0.400423
vn -0.916303 -0.007058 0.400423
vn -0.916303 -0.007058 0.400423
vn -0.538352 -0.129609 0.832694
vn -0.538352 -0.129609 0.832694
vn -0.538352 -0.129609 0.832694
vn -0.797738 -0.031831 -0.602164
vn -0.797738 -0.031831 -0.602164
vn -0.797738 -0.031831 -0.602164
vn -0.972233 0.180467 -0.148980
vn -0.972233 0.180467 -0.148980
vn -0.972233 0.180467 -0.148980
vn -0.972233 0.180467 -0.148980
vn -1.000000 0.000000 0.000000
vn -1.000000 0.000000 0.000000
vn -1.000000 0.000000 0.000000
vn -1.000000 0.000000 0.000000
vn -0.678471 0.068966 0.731383
vn -0.678471 0.068966 0.731383
vn -0.678471 0.068966 0.731383
vn -0.893708 0.154165 0.421331
vn -0.893708 0.154165 0.421331
vn -0.893708 0.154165 0.421331
vn -0.939781 0.042955 0.339067
vn -0.939781 0.042955 0.339067
vn -0.939781 0.042955 0.339067
vn -0.939781 0.042955 0.339067
vn 0.000000 1.000000 -0.000000
vn 0.000000 1.000000 0.000000
vn 0.000000 1.000000 0.000000
vn 0.000000 1.000000 0.000000
vn 0.000000 1.000000 -0.000000
vn 0.000000 1.000000 0.000000
vn 0.000000 1.000000 0.000000
vn 0.000000 1.000000 0.000000
vn 0.000000 1.000000 0.000000
s off
g transitions transition_3x1_a1
usemtl initialShadingGroup
f 78/78/185 79/79/186 83/83/187 76/76/188
f 83/83/189 80/80/190 82/82/191
f 83/83/192 79/79/193 80/80/194
f 84/84/195 85/85/196 86/86/197
f 82/82/198 80/80/199 81/81/200
f 82/82/201 81/81/202 85/85/203 84/84/204
f 84/84/205 86/86/206 87/87/207 88/88/208
f 89/89/209 87/87/210 90/90/211
f 88/88/212 87/87/213 89/89/214
f 89/89/215 90/90/216 73/73/217 74/74/218
s 1
f 83/83/219 75/75/220 77/77/221 76/76/222
f 75/75/220 82/82/223 84/84/224 88/88/225
f 82/82/223 75/75/220 83/83/219
f 89/89/226 74/74/227 75/75/220 88/88/225
g default
v -4.455258 -0.500000 4.185671
v -4.455258 0.500000 4.185671
v -3.455258 0.500000 4.185671
v -4.455258 0.500000 2.185671
v -3.455258 0.500000 2.185671
v -4.455258 -0.500000 2.185671
v -4.630848 -0.500000 2.443295
v -4.630848 0.500000 2.362693
v -4.455258 -0.500000 2.635770
v -4.680335 -0.500000 2.872870
v -4.637244 -0.500000 3.211542
v -4.622825 0.500000 3.017830
v -4.455258 0.500000 2.854380
v -4.455258 -0.500000 3.559000
v -4.685147 -0.500000 3.968621
v -4.615111 0.500000 3.704203
vt 0.030534 0.415742
vt 0.161462 0.415742
vt 0.273322 0.415742
vt 0.143607 0.696637
vt 0.273322 0.696637
vt 0.030534 0.696637
vt 0.030534 0.662403
vt 0.129137 0.661523
vt 0.030534 0.627432
vt 0.030534 0.587289
vt 0.030534 0.542978
vt 0.138585 0.574459
vt 0.150733 0.601617
vt 0.030534 0.491563
vt 0.030534 0.431121
vt 0.142400 0.489438
vn 0.000000 1.000000 0.000000
vn 0.000000 1.000000 0.000000
vn 0.000000 1.000000 0.000000
vn 0.000000 1.000000 0.000000
vn -0.777586 -0.025320 -0.628267
vn -0.999099 -0.034333 0.024954
vn -0.999052 -0.034219 -0.026927
vn -0.777586 -0.025320 -0.628267
vn -0.982244 0.017938 0.186746
vn -0.990061 0.023764 0.138618
vn -0.940130 0.105602 -0.324043
vn -0.999642 -0.023474 0.012865
vn -0.984543 -0.045317 0.169180
vn -0.997499 -0.070617 -0.002975
vn -0.966650 -0.004911 0.256055
vn -0.977707 0.049270 0.204111
vn -0.869352 0.094572 0.485061
vn -0.869352 0.094572 0.485061
vn 0.000000 1.000000 0.000000
vn 0.000000 1.000000 0.000000
vn 0.000000 1.000000 0.000000
vn 0.000000 1.000000 0.000000
vn 0.000000 1.000000 0.000000
vn 0.000000 1.000000 0.000000
vn 0.000000 1.000000 0.000000
vn 0.000000 1.000000 0.000000
s off
g transitions transition_2x1_a
usemtl initialShadingGroup
f 92/92/228 93/93/229 102/102/230 106/106/231
s 1
f 96/96/232 97/97/233 98/98/234 94/94/235
f 98/98/234 97/97/233 99/99/236 103/103/237
f 103/103/237 100/100/238 102/102/239
f 103/103/237 99/99/236 100/100/238
f 102/102/239 101/101/240 104/104/241 106/106/242
f 102/102/239 100/100/238 101/101/240
f 106/106/242 105/105/243 91/91/244 92/92/245
f 106/106/242 104/104/241 105/105/243
s off
f 98/98/246 93/93/247 95/95/248 94/94/249
f 102/102/250 93/93/251 98/98/252 103/103/253
g default
v -6.175466 -0.500000 4.185671
v -6.175466 0.500000 4.185671
v -5.175466 0.500000 4.185671
v -6.175466 0.500000 2.185671
v -5.175466 0.500000 2.185671
v -6.175466 -0.500000 2.185671
v -6.285787 0.500000 3.348691
v -6.539808 0.500000 3.034551
v -6.175466 0.500000 2.451829
v -6.367788 -0.500000 2.620729
v -6.585856 -0.500000 3.131539
v -6.175338 -0.500000 3.698512
v -6.039340 0.500000 3.716005
vt 0.560383 0.697593
vt 0.415861 0.697593
vt 0.295090 0.697593
vt 0.429937 0.414472
vt 0.295090 0.414472
vt 0.560383 0.414472
vt 0.436657 0.574964
vt 0.459725 0.529801
vt 0.429407 0.453559
vt 0.560383 0.473184
vt 0.560383 0.552902
vt 0.560383 0.643865
vt 0.409213 0.625153
vn 0.000000 1.000000 0.000000
vn 0.000000 1.000000 0.000000
vn 0.000000 1.000000 0.000000
vn 0.000000 1.000000 0.000000
vn -0.922540 0.072272 -0.379073
vn -0.930049 0.050910 -0.363891
vn -0.991121 0.083119 -0.103785
vn -0.962004 0.070225 -0.263849
vn -0.962004 0.070225 -0.263849
vn -0.956667 0.082740 0.279180
vn -0.806058 0.107659 0.581963
vn -0.955785 0.098573 0.277052
vn -0.961858 0.097382 0.255629
vn -0.987694 0.068392 -0.140650
vn -0.987694 0.068392 -0.140650
vn 0.000000 1.000000 0.000000
vn 0.000000 1.000000 0.000000
vn 0.000000 1.000000 0.000000
vn 0.000000 1.000000 -0.000000
vn 0.000000 1.000000 -0.000000
vn 0.000000 1.000000 -0.000000
vn 0.000000 1.000000 0.000000
vn 0.000000 1.000000 0.000000
vn 0.000000 1.000000 0.000000
vn 0.000000 1.000000 0.000000
s off
g transitions transition_2x1_b
usemtl initialShadingGroup
f 108/108/254 109/109/255 113/113/256 119/119/257
s 1
f 115/115/258 116/116/259 114/114/260
f 112/112/261 116/116/259 115/115/258 110/110/262
f 114/114/260 117/117/263 113/113/264
f 114/114/260 116/116/259 117/117/263
f 113/113/264 117/117/263 118/118/265 119/119/266
f 119/119/266 118/118/265 107/107/267 108/108/268
s off
f 115/115/269 111/111/270 110/110/271
f 114/114/272 111/111/273 115/115/274
f 113/113/275 109/109/276 111/111/277 114/114/278
g default
v -1.500000 0.500000 1.500000
v 1.500000 0.500000 1.500000
v -1.500000 0.500000 -1.500000
v 1.500000 0.500000 -1.500000
vt 0.859960 0.414779
vt 0.986850 0.418200
vt 0.854074 0.695897
vt 0.982477 0.699317
vn 0.000000 1.000000 0.000000
vn 0.000000 1.000000 0.000000
vn 0.000000 1.000000 0.000000
vn 0.000000 1.000000 0.000000
s off
g module_3x3 modules
usemtl initialShadingGroup
f 120/120/279 121/121/280 123/123/281 122/122/282
g default
v -1.537865 0.500000 -1.876231
v -0.537865 0.500000 -1.876231
v -1.537865 0.500000 -2.876231
v -0.537865 0.500000 -2.876231
vt 0.017200 0.721740
vt 0.283443 0.721740
vt 0.017200 0.987984
vt 0.283443 0.987984
vn 0.000000 1.000000 0.000000
vn 0.000000 1.000000 0.000000
vn 0.000000 1.000000 0.000000
vn 0.000000 1.000000 0.000000
s off
g modules module_1x1
usemtl initialShadingGroup
f 124/124/283 125/125/284 127/127/285 126/126/286
g default
v -0.336755 0.500000 -1.827783
v 0.663245 0.500000 -1.827783
v -0.336755 0.500000 -3.827783
v 0.663245 0.500000 -3.827783
vt 0.305017 0.719549
vt 0.446726 0.719549
vt 0.305017 0.987147
vt 0.446726 0.987147
vn 0.000000 1.000000 0.000000
vn 0.000000 1.000000 0.000000
vn 0.000000 1.000000 0.000000
vn 0.000000 1.000000 0.000000
s off
g modules module_2x1
usemtl initialShadingGroup
f 128/128/287 129/129/288 131/131/289 130/130/290
g default
v -2.791871 0.500000 -1.934501
v -1.791871 0.500000 -1.934501
v -2.791871 0.500000 -4.934501
v -1.791871 0.500000 -4.934501
vt 0.023681 0.020746
vt 0.149806 0.020746
vt 0.023681 0.393199
vt 0.149806 0.393199
vn 0.000000 1.000000 0.000000
vn 0.000000 1.000000 0.000000
vn 0.000000 1.000000 0.000000
vn 0.000000 1.000000 0.000000
s off
g modules module_3x1
usemtl initialShadingGroup
f 132/132/291 133/133/292 135/135/293 134/134/294
